<?xml version="1.0" encoding="iso-8859-1"?>
<!-- Generator: Adobe Illustrator 19.0.0, SVG Export Plug-In . SVG Version: 6.00 Build 0)  -->
<svg version="1.1" id="Layer_1" xmlns="http://www.w3.org/2000/svg" xmlns:xlink="http://www.w3.org/1999/xlink" x="0px" y="0px"
	 viewBox="0 0 512 512" style="enable-background:new 0 0 512 512;" xml:space="preserve">
<g>
	<g>
		<path style="fill:#FFFFFF" d="M416.072,196.044l-95.548,0.096c-15.584,0-28.524,12.68-28.524,28.264v199.404C292,439.392,304.936,454,320.524,454h0.132
			l95.352-1.056c15.584,0,28.296-13.164,28.296-28.748l0.112-199.552C444.416,209.008,431.712,196.044,416.072,196.044z
			 M359.916,210H376.8c4.416,0,8,3.584,8,8s-3.584,8-8,8h-16.884c-4.416,0-8-3.584-8-8S355.496,210,359.916,210z M330.76,210.956
			c3-2.96,8.32-2.96,11.32,0c1.48,1.52,2.32,3.56,2.32,5.68c0,2.08-0.84,4.16-2.32,5.64c-1.48,1.48-3.564,2.36-5.68,2.36
			c-2.084,0-4.16-0.88-5.64-2.36c-1.48-1.48-2.36-3.56-2.36-5.64C328.404,214.512,329.28,212.432,330.76,210.956z M368.356,444.18
			c-6.62,0-12.008-5.388-12.008-12.004c0-6.616,5.388-12.004,12.008-12.004s12.008,5.384,12.008,12.004
			S374.976,444.18,368.356,444.18z M428,410c0,2.208-1.788,4-4,4H312c-2.212,0-4-1.792-4-4V242c0-2.208,1.788-4,4-4h112
			c2.212,0,4,1.792,4,4V410z"/>
	</g>
</g>
<g>
	<g>
		<path style="fill:#FFFFFF" d="M507.888,354H484V88.472C484,70.4,469.276,58,451.208,58H60.792C42.716,58,28,70.4,28,88.472V354H4.104
			C1.896,354,0,353.376,0,355.584v3.728C0,379.36,16.412,398,36.456,398H300v-60H52V94h408v244h-20v60h35.528
			C495.584,398,512,379.36,512,359.312v-3.728C512,353.376,510.096,354,507.888,354z M261.636,81.192
			c-1.484,1.484-3.524,2.32-5.64,2.32c-2.116,0-4.164-0.836-5.64-2.32c-1.524-1.516-2.36-3.56-2.36-5.68
			c0-2.12,0.836-4.16,2.36-5.64c2.96-3,8.32-3,11.28,0c1.516,1.48,2.36,3.56,2.36,5.64
			C263.996,77.632,263.152,79.672,261.636,81.192z"/>
	</g>
</g>
<g>
</g>
<g>
</g>
<g>
</g>
<g>
</g>
<g>
</g>
<g>
</g>
<g>
</g>
<g>
</g>
<g>
</g>
<g>
</g>
<g>
</g>
<g>
</g>
<g>
</g>
<g>
</g>
<g>
</g>
</svg>
