<?xml version="1.0" encoding="UTF-8" standalone="no"?>
<svg
   xmlns:dc="http://purl.org/dc/elements/1.1/"
   xmlns:cc="http://creativecommons.org/ns#"
   xmlns:rdf="http://www.w3.org/1999/02/22-rdf-syntax-ns#"
   xmlns:svg="http://www.w3.org/2000/svg"
   xmlns="http://www.w3.org/2000/svg"
   xmlns:sodipodi="http://sodipodi.sourceforge.net/DTD/sodipodi-0.dtd"
   xmlns:inkscape="http://www.inkscape.org/namespaces/inkscape"
   version="1.0"
   width="1280.000000pt"
   height="768.000000pt"
   viewBox="0 0 1280.000000 768.000000"
   preserveAspectRatio="xMidYMid meet"
   id="svg80"
   sodipodi:docname="magpie.svg"
   inkscape:version="1.0.2 (1.0.2+r75+1)">
  <defs
     id="defs84" />
  <sodipodi:namedview
     pagecolor="#ffffff"
     bordercolor="#666666"
     borderopacity="1"
     objecttolerance="10"
     gridtolerance="10"
     guidetolerance="10"
     inkscape:pageopacity="0"
     inkscape:pageshadow="2"
     inkscape:window-width="1637"
     inkscape:window-height="1032"
     id="namedview82"
     showgrid="false"
     inkscape:zoom="0.76289063"
     inkscape:cx="853.33333"
     inkscape:cy="512"
     inkscape:window-x="596"
     inkscape:window-y="64"
     inkscape:window-maximized="0"
     inkscape:current-layer="svg80" />
  <metadata
     id="metadata74">
Created by potrace 1.16, written by Peter Selinger 2001-2019
<rdf:RDF>
  <cc:Work
     rdf:about="">
    <dc:format>image/svg+xml</dc:format>
    <dc:type
       rdf:resource="http://purl.org/dc/dcmitype/StillImage" />
  </cc:Work>
</rdf:RDF>
</metadata>
  <g
     transform="translate(0.000000,768.000000) scale(0.100000,-0.100000)"
     fill="#000000"
     stroke="none"
     id="g78">
    <path
       d="M10971 7665 c-123 -19 -188 -38 -288 -86 -124 -59 -251 -149 -369 -262 -147 -140 -242 -257 -482 -596 -18 -25 -83 -145 -144 -266 -127 -252 -174 -327 -255 -406 -32 -31 -197 -155 -368 -275 -857 -601 -1040 -746 -1535 -1209 -760 -712 -1654 -1575 -1718 -1659 -149 -197 -389 -394 -622 -511 -156 -78 -838 -366 -1505 -634 -315 -127 -461 -191 -513 -225 -118 -77 -191 -104 -456 -171 -395 -99 -615 -173 -1039 -349 -87 -36 -357 -141 -600 -232 -657 -248 -998 -383 -1054 -420 -16 -10 -23 -24 -23 -47 0 -70 103 -122 197 -100 26 7 84 15 128 18 114 9 274 38 555 100 135 29 268 57 295 61 28 4 66 13 86 19 64 23 189 44 379 65 212 23 318 43 410 75 36 13 135 41 220 64 393 101 710 223 1545 594 504 224 669 293 897 378 90 33 210 80 268 104 339 141 785 277 1217 371 92 20 211 49 263 65 143 43 223 52 415 46 120 -3 242 -15 415 -41 135 -20 281 -36 325 -36 111 -1 218 -16 269 -38 l42 -19 12 -144 c15 -183 47 -365 117 -665 76 -322 112 -505 130 -648 l15 -120 -23 -24 c-12 -13 -40 -34 -62 -45 -38 -21 -52 -22 -230 -19 -260 4 -287 0 -340 -49 -44 -40 -91 -130 -81 -155 9 -24 31 -16 90 36 68 59 92 62 192 25 74 -28 158 -33 189 -11 11 7 31 17 45 21 14 4 72 27 129 52 133 57 256 85 505 112 104 12 168 34 217 75 42 36 89 46 210 46 76 0 118 5 145 16 22 9 65 17 97 17 31 0 57 4 57 7 0 15 -65 71 -89 77 -23 6 -159 0 -303 -13 -67 -7 -72 -6 -59 9 36 44 200 97 300 97 34 0 61 4 61 8 0 13 -52 58 -89 77 -45 23 -135 30 -190 15 -31 -8 -64 -30 -116 -80 -107 -101 -190 -136 -215 -91 -14 27 -13 29 13 33 57 8 3 75 -70 85 -36 5 -44 2 -76 -31 -45 -45 -82 -55 -107 -30 -36 36 -151 552 -171 763 -16 170 10 341 63 422 29 43 112 86 186 95 31 4 131 2 222 -5 237 -17 250 -31 181 -194 -58 -134 -56 -151 24 -238 125 -136 191 -244 320 -524 45 -99 119 -254 164 -345 89 -180 111 -241 111 -307 0 -59 -22 -97 -73 -127 -100 -59 -255 -69 -455 -30 l-93 18 -64 -32 c-106 -52 -175 -126 -175 -187 0 -49 28 -41 90 28 37 40 75 71 101 81 l42 17 67 -66 c65 -62 70 -65 118 -65 27 0 69 9 93 19 25 11 103 30 174 41 106 18 146 29 215 63 106 52 200 62 290 29 306 -112 285 -107 415 -105 93 2 136 -2 193 -17 100 -28 132 -27 132 3 0 13 -13 42 -29 65 -25 34 -38 42 -84 52 -29 6 -82 24 -118 41 -57 27 -62 32 -46 43 9 7 56 21 104 31 90 17 149 41 172 69 18 22 39 20 90 -9 65 -37 73 -34 69 28 -3 50 -4 53 -46 74 -98 49 -203 38 -411 -43 -120 -47 -124 -47 -138 -28 -13 17 -12 21 7 34 63 45 65 48 54 67 -6 10 -28 22 -48 27 -55 14 -115 -6 -221 -74 -50 -33 -97 -60 -103 -60 -18 0 -83 72 -107 120 -12 25 -39 86 -60 135 -20 50 -54 120 -76 156 -21 36 -39 68 -39 72 0 4 -47 107 -104 230 -106 227 -164 377 -185 479 -22 103 28 316 87 370 15 14 70 44 122 68 312 138 703 375 1060 644 332 250 559 522 740 891 201 409 293 794 307 1281 8 294 -5 442 -68 799 -16 89 -13 326 5 426 33 182 106 336 213 449 87 92 158 139 231 150 31 5 173 21 316 35 259 26 484 64 525 89 23 14 12 73 -22 118 -42 56 -75 71 -380 174 -138 47 -292 105 -342 129 -79 38 -97 52 -152 118 -119 144 -323 282 -498 337 -90 29 -287 36 -424 15z m-896 -2409 c17 -12 14 -17 -45 -62 -35 -27 -160 -124 -279 -217 -381 -296 -553 -412 -693 -467 -133 -53 -374 -172 -493 -245 -338 -208 -641 -303 -1185 -375 -85 -11 -176 -25 -202 -31 -82 -19 -161 26 -143 82 4 12 49 63 99 114 103 103 112 107 301 149 101 22 139 39 475 204 201 99 394 201 430 226 102 71 204 131 282 164 76 33 372 151 518 207 47 18 164 66 260 107 287 123 404 155 566 157 62 1 96 -3 109 -13z m399 -34 c136 -68 281 -232 423 -482 126 -220 246 -454 270 -523 31 -91 41 -251 23 -364 -23 -143 -93 -309 -184 -438 -20 -27 -63 -89 -96 -137 -243 -353 -526 -613 -1082 -991 l-187 -128 -83 -9 c-162 -19 -371 -5 -529 35 -105 27 -301 95 -344 120 -51 29 -127 110 -153 161 -33 66 -43 138 -33 250 6 68 16 114 30 141 24 48 91 108 129 118 42 9 376 171 480 232 106 62 213 161 258 238 15 28 48 75 73 105 94 116 194 293 264 466 19 50 71 149 114 220 193 316 249 455 329 827 35 164 73 211 167 204 30 -3 79 -19 131 -45z m-8424 -4251 c0 -15 -71 -72 -107 -88 -50 -20 -133 -34 -150 -24 -25 14 49 66 136 95 79 26 121 32 121 17z m-170 -340 c-33 -63 -88 -79 -420 -127 -140 -20 -280 -45 -310 -56 -236 -86 -289 -98 -570 -138 -223 -31 -347 -38 -381 -20 -27 15 -24 55 9 89 20 23 85 53 257 122 127 50 237 94 245 97 8 3 -6 -14 -32 -37 -67 -60 -63 -91 14 -91 16 0 41 -9 55 -20 46 -36 114 -25 268 40 83 35 102 39 239 50 181 14 345 40 491 78 140 37 149 38 135 13z"
       id="path76" />
  </g>
  <path
     style="fill:#ffffff;stroke-width:1.3108"
     d="m 1238.7097,737.27261 c -28.9334,-3.29814 -43.4177,-6.7629 -68.0552,-16.27935 -12.4962,-4.82675 -15.1206,-6.4138 -22.0268,-13.32002 -13.5004,-13.50034 -17.3866,-27.2103 -14.1588,-49.94938 2.4771,-17.45053 8.4717,-24.76782 26.394,-32.21782 16.5898,-6.89609 51.7838,-24.57483 61.7254,-31.00605 12.2368,-7.91592 23.4596,-18.70381 31.2801,-30.06783 3.473,-5.0466 10.1684,-14.48439 14.8787,-20.97287 8.8052,-12.12917 21.9714,-36.34508 30.1501,-55.45352 2.5488,-5.95481 10.177,-20.39308 16.9515,-32.08505 23.2094,-40.05641 28.8705,-53.75613 38.3084,-92.70524 3.4054,-14.05382 7.3601,-28.08368 8.7882,-31.17746 4.5421,-9.83987 13.3448,-11.88913 27.0858,-6.30563 27.5797,11.20661 50.1529,40.36773 85.8679,110.92777 13.8714,27.4048 16.4663,36.34597 16.4285,56.60562 -0.049,26.34227 -8.4774,49.72098 -28.4911,79.0312 -40.5581,59.39781 -72.6547,89.92254 -152.6645,145.18798 l -25.8481,17.85415 -12.4412,1.38727 c -11.7964,1.31537 -25.5035,1.53447 -34.1729,0.54623 z"
     id="path90"
     transform="scale(0.75000001)" />
  <path
     style="fill:#ffffff;stroke-width:1.3108"
     d="m 942.95113,506.74387 c -4.63006,-2.5157 -5.57707,-5.57343 -2.96216,-9.56428 3.75237,-5.72685 21.94873,-23.39654 26.47693,-25.7106 2.38472,-1.21867 12.21427,-4.20003 21.84344,-6.62523 12.92196,-3.25451 22.77276,-6.86424 37.60986,-13.78172 32.7164,-15.25337 77.3663,-38.55745 92.5047,-48.28096 20.0226,-12.86068 27.4906,-16.35956 78.6464,-36.84705 25.0645,-10.03813 55.0096,-22.10278 66.5447,-26.81035 30.9133,-12.61601 41.4503,-15.43949 60.4676,-16.20273 9.1777,-0.36833 16.8646,-0.0985 18.181,0.63819 1.9043,1.06573 -2.0171,4.616 -23.7651,21.51579 -73.9164,57.43829 -87.0034,66.31544 -117.3738,79.61669 -22.7276,9.95397 -40.0309,18.67891 -59.4318,29.9676 -49.1709,28.61083 -77.548,37.82689 -150.60223,48.91135 -36.96115,5.6081 -42.93384,6.00179 -48.13954,3.1733 z"
     id="path92"
     transform="scale(0.75000001)" />
  <path
     style="fill:#ffffff;stroke-width:1.3108"
     d="m 239.91903,908.586 c -1.26614,-2.04866 10.64576,-8.99719 20.40799,-11.9045 13.09092,-3.89865 14.91595,-3.21012 7.39582,2.79019 -5.98756,4.77748 -11.35665,7.36666 -17.40459,8.39317 -2.85886,0.48523 -6.18054,1.14965 -7.38152,1.4765 -1.20097,0.32684 -2.55894,-0.0131 -3.0177,-0.75536 z"
     id="path94"
     transform="scale(0.75000001)" />
  <path
     style="fill:#ffffff;stroke-width:1.3108"
     d="m 26.426394,983.91246 c -4.024536,-4.02454 0.40183,-9.9662 11.586919,-15.55351 7.456347,-3.72469 49.069955,-20.51666 50.844083,-20.51666 0.641143,0 -0.361375,1.81485 -2.227817,4.03299 -1.866443,2.21814 -3.393532,4.85176 -3.393532,5.8525 0,2.31765 4.102462,4.53336 8.393687,4.53336 1.82755,0 5.731753,1.2556 8.676006,2.79023 7.03211,3.66534 12.43992,2.89057 32.68572,-4.68284 14.15371,-5.29452 17.789,-6.08643 36.3996,-7.92925 26.82751,-2.65645 41.74744,-5.05117 62.37355,-10.01125 9.23603,-2.22104 17.19917,-3.63084 17.69585,-3.13289 1.63099,1.63509 -6.21179,7.10611 -13.20953,9.21479 -3.77314,1.13699 -19.83721,4.11157 -35.69793,6.61016 -39.3156,6.19353 -40.57812,6.46889 -62.94625,13.72892 -21.0091,6.81893 -37.35733,10.15239 -70.478182,14.37078 -25.13139,3.20081 -37.975449,3.41939 -40.702174,0.69267 z"
     id="path96"
     transform="scale(0.75000001)" />
  <ellipse
     style="fill:#ffffff;stroke-width:0.75"
     id="path98"
     cx="1126.8389"
     cy="53.157642"
     rx="11.553499"
     ry="12.444586" />
</svg>
